/* XPM */
static char * clamtk_xpm[] = {
"32 32 255 2",
"  	c None",
". 	c #FF0000",
"+ 	c #676966",
"@ 	c #676965",
"# 	c #B63331",
"$ 	c #FE0101",
"% 	c #E70E0D",
"& 	c #646662",
"* 	c #787A76",
"= 	c #A3A59E",
"- 	c #B9BDB6",
"; 	c #D68C87",
"> 	c #FF0201",
", 	c #D8615D",
"' 	c #A1A59F",
") 	c #777975",
"! 	c #686A64",
"~ 	c #F00908",
"{ 	c #6E706D",
"] 	c #BCBFB7",
"^ 	c #CBCFC7",
"/ 	c #C7CAC4",
"( 	c #CCC9C2",
"_ 	c #F91A19",
": 	c #ED4D4A",
"< 	c #CFD3CB",
"[ 	c #D0D3CC",
"} 	c #D0D4CC",
"| 	c #CED2CA",
"1 	c #E72423",
"2 	c #C22A29",
"3 	c #787A74",
"4 	c #C7CAC3",
"5 	c #C9CDC5",
"6 	c #C3C6BF",
"7 	c #C2C5BE",
"8 	c #DE8883",
"9 	c #FE0404",
"0 	c #D2BDB5",
"a 	c #D9AEA7",
"b 	c #CFB5AF",
"c 	c #727471",
"d 	c #686A66",
"e 	c #C4C8C0",
"f 	c #C8CCC4",
"g 	c #C3C5BE",
"h 	c #CACEC6",
"i 	c #EC4B48",
"j 	c #F23634",
"k 	c #CDD0C9",
"l 	c #CDD1C9",
"m 	c #D1D5CD",
"n 	c #7D817B",
"o 	c #656863",
"p 	c #A9ABA5",
"q 	c #C6CAC2",
"r 	c #D29A94",
"s 	c #E25B58",
"t 	c #E65F5C",
"u 	c #E6605C",
"v 	c #F91515",
"w 	c #F22826",
"x 	c #E55E5B",
"y 	c #E8615E",
"z 	c #E56C68",
"A 	c #D0C7C0",
"B 	c #D4C3BC",
"C 	c #BC3634",
"D 	c #ED0A08",
"E 	c #6D706B",
"F 	c #C5C8C1",
"G 	c #C5C8C2",
"H 	c #DB6B67",
"I 	c #F42827",
"J 	c #F42927",
"K 	c #FC0808",
"L 	c #FA1212",
"M 	c #F52928",
"N 	c #F52A28",
"O 	c #F42F2E",
"P 	c #D2B6AF",
"Q 	c #F32B29",
"R 	c #E61111",
"S 	c #9C9E98",
"T 	c #BFC3BB",
"U 	c #C2C6BF",
"V 	c #C7CBC3",
"W 	c #C0C4BC",
"X 	c #EC3E3C",
"Y 	c #EE4240",
"Z 	c #C4C8C1",
"` 	c #90938D",
" .	c #656964",
"..	c #C0C3BC",
"+.	c #C3C7BF",
"@.	c #BDC1B9",
"#.	c #C6C9C2",
"$.	c #C1C5BD",
"%.	c #C1C5BC",
"&.	c #E0746F",
"*.	c #FC0B0B",
"=.	c #CCC4BD",
"-.	c #CCD0C8",
";.	c #D2BDB6",
">.	c #D1C6BF",
",.	c #C8CBC4",
"'.	c #7B5C58",
").	c #6C6F69",
"!.	c #BFC3BC",
"~.	c #C3C7C0",
"{.	c #BDC0BA",
"].	c #CBBBB4",
"^.	c #E36360",
"/.	c #BFC2BB",
"(.	c #F13B39",
"_.	c #E56460",
":.	c #CC2827",
"<.	c #81847E",
"[.	c #BCBFB8",
"}.	c #C2C5BF",
"|.	c #C4C7C0",
"1.	c #BDC0B8",
"2.	c #DF6E6A",
"3.	c #FE0202",
"4.	c #D8918A",
"5.	c #CACDC6",
"6.	c #F22F2D",
"7.	c #E65754",
"8.	c #E2827D",
"9.	c #949792",
"0.	c #C0C2BC",
"a.	c #C0C3BD",
"b.	c #C5C9C1",
"c.	c #BDBFB8",
"d.	c #E84F4C",
"e.	c #E26D69",
"f.	c #CBC7C1",
"g.	c #C7CBC4",
"h.	c #F02D2B",
"i.	c #E95B57",
"j.	c #E8615D",
"k.	c #FF0101",
"l.	c #D35350",
"m.	c #A3A59F",
"n.	c #BDC0B9",
"o.	c #C0C5BC",
"p.	c #E0726D",
"q.	c #FC0A0A",
"r.	c #FB100F",
"s.	c #E84744",
"t.	c #F91817",
"u.	c #F42E2C",
"v.	c #EE4643",
"w.	c #FC0C0C",
"x.	c #FB1010",
"y.	c #E08681",
"z.	c #A9ADA6",
"A.	c #656661",
"B.	c #ABAEA8",
"C.	c #C0C4BB",
"D.	c #BEC1BA",
"E.	c #C2C6BE",
"F.	c #CAB7B0",
"G.	c #DB6965",
"H.	c #F13532",
"I.	c #FD0707",
"J.	c #FC0E0D",
"K.	c #F13A37",
"L.	c #E27873",
"M.	c #CABFB8",
"N.	c #C6C9C3",
"O.	c #636762",
"P.	c #B0B3AC",
"Q.	c #BBBEB7",
"R.	c #BEC1BB",
"S.	c #C1C4BD",
"T.	c #C3C6C0",
"U.	c #F32F2E",
"V.	c #E85956",
"W.	c #8C8E89",
"X.	c #656764",
"Y.	c #B4B5AF",
"Z.	c #BBBFB8",
"`.	c #C0C3BB",
" +	c #BEC2BA",
".+	c #E75956",
"++	c #C6C8C1",
"@+	c #6E706B",
"#+	c #646560",
"$+	c #B3B6AF",
"%+	c #BBBEB8",
"&+	c #BDC1BA",
"*+	c #BFC2BC",
"=+	c #E45552",
"-+	c #C0C4BD",
";+	c #CBCEC7",
">+	c #ABAFA8",
",+	c #626360",
"'+	c #676864",
")+	c #848681",
"!+	c #767773",
"~+	c #B0B4AD",
"{+	c #BBBFB7",
"]+	c #DA6F6B",
"^+	c #D58F8A",
"/+	c #5F635E",
"(+	c #8F938C",
"_+	c #787B76",
":+	c #B0B2AC",
"<+	c #BBBDB6",
"[+	c #BDBFB9",
"}+	c #BABEB6",
"|+	c #6B6D69",
"1+	c #5F625D",
"2+	c #727570",
"3+	c #ACAFA8",
"4+	c #BABDB7",
"5+	c #BCBEB7",
"6+	c #C0C2BB",
"7+	c #BCBFB9",
"8+	c #969993",
"9+	c #646762",
"0+	c #5B5E58",
"a+	c #7E827B",
"b+	c #BABDB6",
"c+	c #BBBEB6",
"d+	c #C1C3BD",
"e+	c #ACAFA9",
"f+	c #888B85",
"g+	c #7F817C",
"h+	c #ADAFA9",
"i+	c #B6B8B1",
"j+	c #B7BAB3",
"k+	c #B6B9B2",
"l+	c #B5B7B1",
"m+	c #A8ABA5",
"n+	c #9FA19C",
"o+	c #959892",
"p+	c #858781",
"q+	c #70726C",
"r+	c #666865",
"s+	c #5A5A57",
"t+	c #6D6F6B",
"u+	c #6E706C",
"v+	c #6A6C68",
"w+	c #626561",
"x+	c #646661",
"y+	c #62645E",
"z+	c #5D5F5B",
"A+	c #8C908A",
"B+	c #6D6F69",
"C+	c #616360",
"D+	c #636561",
"E+	c #6E6E6A",
"F+	c #808080",
"                                                                ",
"                                      . .                       ",
"                                      . .                       ",
"                                      . .                       ",
"                                    . . .                       ",
"                                . . . . . . . .                 ",
"                        + @ # $ %     . .     . .               ",
"                  & * = - ; > , ' ) ! ~ .       . .             ",
"                { ] ^ / ( _ : < [ } | 1 2         . .           ",
"              3 4 5 6 7 8 9 0 | < [ } a b c         .           ",
"            d e f g g h i j k l | < [ } m } n       . .         ",
"          o p q r s t u v w x y z A < [ } m B C D . . . . . .   ",
"          E F G H I J J K L M N O P | < } } a Q R . . . . . .   ",
"          S e T U q V W X Y h ^ F Z l | < } } m `   . .         ",
"         ...+.@.F #.$.%.&.*.=.F $.-.k ;.>.< } } ,.'..           ",
"        ).7 !.W e ~.{.#.].*.^./.h ^ -.(._.| < } } :..           ",
"        <.$.[.}.|.1.|.#.4 2.3.4.5.h ^ 6.7.l | < 8..             ",
"        9.0.@.7 !.a.e b.b.c.d.9 e.f.g.h.i.l A j.k.l.            ",
"        m.n.0.o.n.6 |.e {.|.4 p.q.r.s.t.u.v.w.x.y.z.            ",
"      A.B.[...n.C.7 6 D.E.b.#.4 F.G.H.I.J.K.L.M.N.z.            ",
"      O.P.Q.R.[.S.$.D...|.e b.T.D.q f U.V.h f ..l W.            ",
"      X.Y.Z.] R...D.@.E.6 |.`. +b.4 V 6..+++`.h -.@+            ",
"      #+$+Z.%+ +D.c.S.$.E.&+*+e b.q 4 6.=+-+5.;+>+,+            ",
"  '+)+!+~+Q.[.{.{+/...`.[.W 6 |.F b.E.]+^+f 5 ..@               ",
"  /+(+_+:+<+Q.<+&+ +[+c.a.7 E.E...n.S.b.4 ,.}+|+                ",
"    1+2+3+<+4+] 5+Q.@./.6+R.7+n...6 F b.+.8+9+                  ",
"      0+a+b+}+c+Q.[.5+] [.D.d+7 E.}.e+f++                       ",
"        1+g+h+i+j+k+l+P.m+n+o+p+q+r+O.                          ",
"          s+t+u+v+w+9+x+y+                                      ",
"            z+A+B+                                              ",
"              C+D+                                              ",
"                E+      F+F+F+F+F+F+F+                          "};
